HIERARCHY
ROOT Hips
{
  OFFSET 0.0000 0.0000 0.0000
  CHANNELS 6 Xposition Yposition Zposition Zrotation Xrotation Yrotation
  JOINT LeftHip
  {
    OFFSET 5.5000 0.0000 0.0000
    CHANNELS 3 Zrotation Xrotation Yrotation
    JOINT LeftKnee
    {
      OFFSET 0.0000 -17.5000 0.0000
      CHANNELS 3 Zrotation Xrotation Yrotation
      JOINT LeftAnkle
      {
        OFFSET 0.0000 -17.0000 0.0000
        CHANNELS 3 Zrotation Xrotation Yrotation
        End Site
        {
            OFFSET 0.0000 -4.7000 -2.0000
        }
      }
    }
  }
  JOINT RightHip
  {
    OFFSET -5.5000 0.0000 -0.0000
    CHANNELS 3 Zrotation Xrotation Yrotation
    JOINT RightKnee
    {
      OFFSET 0.0000 -17.5000 0.0000
      CHANNELS 3 Zrotation Xrotation Yrotation
      JOINT RightAnkle
      {
        OFFSET 0.0000 -17.0000 0.0000
        CHANNELS 3 Zrotation Xrotation Yrotation
        End Site
        {
            OFFSET 0.0000 -4.7000 -2.0000
        }
      }
    }
  }
  JOINT Chest
  {
    OFFSET -0.0000 3.0000 -1.0000
    CHANNELS 3 Zrotation Xrotation Yrotation
    JOINT LeftCollar
    {
      OFFSET 0.0000 18.0000 1.0000
      CHANNELS 3 Zrotation Xrotation Yrotation
      JOINT LeftShoulder
      {
        OFFSET 6.5000 0.0000 0.0000
        CHANNELS 3 Zrotation Xrotation Yrotation
        JOINT LeftElbow
        {
          OFFSET 0.0000 -11.0000 0.0000
          CHANNELS 3 Zrotation Xrotation Yrotation
          JOINT LeftWrist
          {
            OFFSET 0.0000 -10.5000 -0.0000
            CHANNELS 3 Zrotation Xrotation Yrotation
            End Site
            {
                OFFSET 0.0000 -6.0000 -0.0000
            }
          }
        }
      }
    }
    JOINT RightCollar
    {
      OFFSET 0.0000 18.0000 1.0000
      CHANNELS 3 Zrotation Xrotation Yrotation
      JOINT RightShoulder
      {
        OFFSET -6.5000 0.0000 0.0000
        CHANNELS 3 Zrotation Xrotation Yrotation
        JOINT RightElbow
        {
          OFFSET 0.0000 -11.0000 0.0000
          CHANNELS 3 Zrotation Xrotation Yrotation
          JOINT RightWrist
          {
            OFFSET 0.0000 -10.5000 0.0000
            CHANNELS 3 Zrotation Xrotation Yrotation
            End Site
            {
                OFFSET 0.0000 -6.0000 0.0000
            }
          }
        }
      }
    }
    JOINT Neck
    {
      OFFSET 0.0000 18.0000 1.0000
      CHANNELS 3 Zrotation Xrotation Yrotation
      JOINT Head
      {
        OFFSET -0.0000 3.0000 0.0000
        CHANNELS 3 Zrotation Xrotation Yrotation
        End Site
        {
            OFFSET 0.0000 7.0000 0.0000
        }
      }
    }
  }
}
MOTION
Frames:	32
Frame Time:	0.033333
-4.8405 37.4930 3.4054 1.24 -9.74 20.52 15.35 -10.35 9.65 -0.00 46.24 2.72 -9.46 -20.46 -37.56 1.48 -4.52 -5.61 -0.00 50.51 -1.80 -1.49 -27.21 -19.70 -0.88 8.79 3.14 0.00 0.00 0.00 3.38 10.57 43.87 0.00 -20.36 2.61 -8.83 3.85 20.74 0.00 0.00 0.00 -89.23 -20.60 -87.78 -0.00 -47.57 -8.58 -19.12 -57.32 56.87 0.00 0.00 0.00 23.55 3.36 -16.18 
-4.9494 37.4308 3.4909 1.24 -9.68 20.38 15.47 -10.45 9.41 -0.00 46.56 2.57 -9.69 -20.68 -37.09 1.55 -4.70 -5.84 -0.00 50.95 -1.96 -1.66 -27.56 -19.33 -0.82 8.80 2.93 0.00 0.00 0.00 3.64 10.81 43.46 -0.00 -20.53 2.40 -8.82 3.99 21.64 0.00 0.00 0.00 -89.03 -20.31 -87.46 0.00 -49.55 -7.53 -20.11 -55.28 55.58 0.00 0.00 0.00 23.46 2.51 -16.78 
-5.0234 37.3663 3.4659 1.23 -9.64 20.20 15.43 -10.74 9.07 0.00 46.96 2.30 -9.72 -20.87 -36.24 1.44 -5.08 -6.13 0.00 51.51 -2.13 -1.69 -27.78 -18.75 -0.74 8.78 2.61 0.00 0.00 0.00 3.81 10.94 42.90 -0.00 -20.56 2.23 -8.57 4.07 22.69 0.00 0.00 0.00 -88.89 -19.96 -87.14 0.00 -51.28 -6.88 -20.46 -53.64 54.83 0.00 0.00 0.00 23.26 1.64 -17.28 
-5.0206 37.3220 3.5123 1.22 -9.61 19.98 15.27 -10.71 8.69 0.00 47.11 2.08 -9.71 -21.14 -35.34 1.26 -5.12 -6.39 0.00 51.69 -2.18 -1.66 -27.95 -18.19 -0.68 8.75 2.27 0.00 0.00 0.00 3.85 11.02 42.65 -0.00 -20.53 2.32 -8.27 4.18 23.16 0.00 0.00 0.00 -88.66 -19.91 -86.92 -0.00 -52.74 -6.73 -20.22 -52.57 54.81 0.00 0.00 0.00 22.98 1.13 -17.20 
-5.0175 37.3051 3.5257 1.21 -9.59 19.74 15.10 -10.67 8.39 0.00 47.18 2.01 -9.70 -21.28 -34.60 1.09 -5.18 -6.57 0.00 51.81 -2.04 -1.73 -28.01 -17.91 -0.65 8.72 2.04 0.00 0.00 0.00 3.86 11.09 42.86 -0.00 -20.54 2.52 -8.08 4.38 22.99 0.00 0.00 0.00 -88.40 -20.17 -86.60 -0.00 -54.18 -6.44 -20.54 -51.42 54.36 0.00 0.00 0.00 22.71 1.09 -16.43 
-5.0161 37.2986 3.5252 1.20 -9.57 19.49 14.96 -10.63 8.21 -0.00 47.17 2.09 -9.72 -21.33 -34.13 0.98 -5.27 -6.60 -0.00 51.88 -1.71 -1.90 -28.02 -17.99 -0.64 8.71 1.95 0.00 0.00 0.00 3.95 11.19 43.46 0.00 -20.68 2.69 -8.16 4.74 22.35 0.00 0.00 0.00 -88.09 -20.64 -86.08 0.00 -55.57 -5.84 -21.73 -50.06 53.04 0.00 0.00 0.00 22.53 1.47 -15.13 
-5.0087 37.2980 3.5166 1.19 -9.53 19.26 14.86 -10.57 8.19 -0.00 47.12 2.26 -9.75 -21.31 -33.87 0.92 -5.37 -6.50 -0.00 51.92 -1.26 -2.11 -27.97 -18.34 -0.65 8.76 2.02 0.00 0.00 0.00 4.27 11.40 44.29 0.00 -20.90 2.75 -8.67 5.19 21.48 0.00 0.00 0.00 -87.59 -21.25 -85.35 0.00 -56.62 -5.15 -23.57 -48.88 50.96 0.00 0.00 0.00 22.49 2.23 -13.52 
-4.9782 37.3163 3.4261 1.19 -9.45 19.04 14.68 -10.57 8.31 -0.00 46.86 2.43 -9.62 -21.06 -33.66 0.82 -5.56 -6.26 -0.00 51.80 -0.82 -2.25 -27.70 -18.77 -0.67 8.87 2.24 0.00 0.00 0.00 4.86 11.74 45.24 0.00 -21.16 2.70 -9.60 5.70 20.53 0.00 0.00 0.00 -86.84 -22.03 -84.64 -0.00 -57.07 -4.81 -25.30 -48.24 48.84 0.00 0.00 0.00 22.59 3.25 -11.66 
-4.9408 37.3839 3.2009 1.19 -9.33 18.84 14.38 -10.65 8.54 -0.00 46.20 2.55 -9.26 -20.41 -33.33 0.65 -5.91 -5.94 0.00 51.41 -0.47 -2.24 -27.04 -19.13 -0.68 9.06 2.60 0.00 0.00 0.00 5.79 12.22 46.29 -0.00 -21.46 2.54 -11.03 6.30 19.56 0.00 0.00 0.00 -85.78 -23.14 -84.22 -0.00 -56.64 -5.34 -26.14 -48.68 47.53 0.00 0.00 0.00 22.96 4.57 -9.42 
-4.9131 37.5123 2.8025 1.21 -9.15 18.67 13.96 -10.89 8.89 -0.00 45.12 2.64 -8.68 -19.28 -32.95 0.42 -6.52 -5.59 0.00 50.79 -0.27 -2.09 -25.95 -19.33 -0.71 9.33 3.15 0.00 0.00 0.00 6.90 12.87 47.70 -0.00 -21.73 2.54 -12.89 6.88 17.99 0.00 0.00 0.00 -84.52 -24.91 -83.94 -0.00 -55.29 -6.63 -26.23 -50.05 47.24 0.00 0.00 0.00 23.55 6.25 -6.49 
-4.9078 37.6966 2.2538 1.22 -8.90 18.54 13.49 -11.24 9.41 -0.00 43.60 2.80 -7.96 -17.66 -32.71 0.16 -7.36 -5.18 -0.00 49.93 -0.16 -1.86 -24.46 -19.49 -0.76 9.67 3.89 0.00 0.00 0.00 7.99 13.63 49.37 0.00 -21.91 2.63 -14.94 7.30 16.01 0.00 0.00 0.00 -83.25 -27.18 -83.81 0.00 -53.23 -8.03 -26.06 -51.67 47.25 0.00 0.00 0.00 24.18 8.00 -3.17 
-4.9273 37.9221 1.7977 1.24 -8.58 18.48 13.17 -11.38 10.21 0.00 41.78 3.37 -7.44 -15.90 -33.32 0.04 -7.98 -4.69 0.00 48.81 -0.02 -1.72 -23.01 -19.92 -0.90 10.06 4.88 0.00 0.00 0.00 8.93 14.61 51.47 0.00 -21.97 2.85 -17.17 7.42 13.30 0.00 0.00 0.00 -81.87 -30.01 -83.40 0.00 -50.37 -8.94 -26.80 -53.33 46.54 0.00 0.00 0.00 24.66 9.89 0.64 
-4.9320 38.0521 1.8218 1.26 -8.18 18.51 13.42 -11.48 11.48 -0.00 41.44 4.62 -7.63 -15.43 -35.59 0.17 -8.28 -4.11 -0.00 48.70 0.17 -1.80 -22.97 -20.76 -1.14 10.46 6.14 0.00 0.00 0.00 9.54 15.71 53.84 0.00 -21.84 3.06 -19.34 7.11 10.05 0.00 0.00 0.00 -80.38 -33.12 -82.26 0.00 -46.84 -8.58 -30.09 -54.35 43.37 0.00 0.00 0.00 24.80 11.59 4.69 
-4.9242 38.0599 1.9093 1.27 -7.73 18.67 13.96 -11.51 13.50 -0.00 41.11 6.69 -7.98 -14.86 -39.56 0.43 -8.46 -3.33 -0.00 48.53 0.42 -1.90 -23.04 -22.00 -1.52 10.85 7.70 0.00 0.00 0.00 9.67 16.86 56.47 -0.00 -21.47 3.20 -21.34 6.27 6.22 0.00 0.00 0.00 -78.40 -36.45 -79.76 0.00 -42.25 -6.62 -37.40 -54.55 36.30 0.00 0.00 0.00 24.41 12.93 9.00 
-4.7882 38.0875 2.3482 1.26 -7.23 18.99 14.66 -10.79 16.08 0.00 40.57 9.06 -8.54 -14.63 -44.71 0.81 -7.69 -2.36 -0.00 47.73 0.67 -1.97 -23.46 -23.58 -2.02 11.16 9.52 0.00 0.00 0.00 9.41 17.89 58.98 -0.00 -21.00 3.04 -22.99 5.00 2.40 0.00 0.00 0.00 -75.64 -39.57 -75.84 0.00 -36.50 -3.49 -47.77 -53.27 25.95 0.00 0.00 0.00 23.53 13.57 13.30 
-4.3825 38.1408 3.0378 1.25 -6.73 19.50 15.06 -9.56 19.10 0.00 40.01 11.25 -8.56 -14.65 -48.57 1.05 -5.94 -1.08 -0.00 46.13 1.06 -1.80 -24.07 -25.64 -2.64 11.34 11.58 0.00 0.00 0.00 8.68 18.66 61.40 -0.00 -20.45 2.60 -24.11 3.36 -1.52 0.00 0.00 0.00 -71.66 -42.42 -70.50 -0.00 -29.43 -0.15 -59.19 -50.59 14.34 0.00 0.00 0.00 22.11 13.35 17.94 
-3.6083 38.2184 3.6968 1.25 -6.23 20.22 14.82 -8.32 22.38 0.00 39.66 12.75 -7.56 -15.09 -50.19 0.82 -3.67 0.59 -0.00 43.90 1.50 -1.07 -24.57 -27.97 -3.36 11.34 13.88 0.00 0.00 0.00 7.57 19.26 63.64 -0.00 -19.86 1.84 -24.76 1.33 -5.43 0.00 0.00 0.00 -66.07 -44.79 -63.56 0.00 -21.28 3.08 -70.26 -46.17 2.77 0.00 0.00 0.00 20.25 12.36 22.95 
-2.5113 38.3097 4.0478 1.24 -5.77 21.18 13.85 -7.53 25.87 0.00 39.60 13.55 -5.35 -15.90 -49.64 0.04 -1.48 2.67 0.00 41.38 1.91 0.30 -24.76 -30.52 -4.23 11.17 16.43 0.00 0.00 0.00 6.19 19.88 65.81 0.00 -19.31 0.95 -25.23 -0.99 -9.56 0.00 0.00 0.00 -58.67 -46.48 -54.42 0.00 -12.88 6.72 -79.64 -38.73 -7.25 0.00 0.00 0.00 18.20 11.00 28.32 
-1.2365 38.4000 4.0620 1.21 -5.34 22.40 12.36 -7.22 29.48 -0.00 39.62 13.80 -2.22 -16.91 -47.45 -1.08 0.49 5.09 -0.00 38.72 2.25 2.08 -24.69 -33.40 -5.23 10.86 19.20 0.00 0.00 0.00 4.82 20.53 67.79 0.00 -18.99 0.02 -25.64 -3.26 -13.82 0.00 0.00 0.00 -49.79 -47.28 -42.89 0.00 -5.44 11.52 -85.61 -27.32 -13.98 0.00 0.00 0.00 16.30 9.34 33.71 
-0.0177 38.4801 3.5919 1.13 -4.99 23.94 10.62 -7.63 33.25 0.00 39.55 13.73 1.69 -17.72 -44.44 -2.17 1.70 7.97 -0.00 36.44 2.67 3.94 -24.35 -37.16 -6.37 10.36 22.24 0.00 0.00 0.00 3.42 20.89 69.74 0.00 -18.94 -0.84 -25.81 -5.21 -18.71 0.00 0.00 0.00 -40.01 -47.31 -28.92 -0.00 -0.71 17.65 -87.64 -12.05 -16.24 0.00 0.00 0.00 14.65 7.26 39.22 
0.9610 38.5397 2.6931 1.02 -4.74 25.89 9.05 -8.71 37.28 0.00 39.44 13.65 5.96 -18.34 -41.77 -2.69 1.66 11.93 0.00 35.57 3.89 5.37 -24.39 -43.39 -7.65 9.59 25.82 0.00 0.00 0.00 1.76 20.77 72.78 0.00 -19.12 -1.02 -26.10 -6.39 -26.32 0.00 0.00 0.00 -29.04 -47.28 -12.01 -0.00 0.86 24.13 -87.60 6.28 -14.02 0.00 0.00 0.00 13.37 5.00 46.01 
1.7425 38.5414 1.6894 0.87 -4.59 28.29 7.66 -9.66 41.27 -0.00 39.23 13.40 9.85 -19.27 -39.69 -2.47 0.54 17.02 0.00 36.75 5.58 6.55 -25.57 -51.62 -8.87 8.62 29.74 0.00 0.00 0.00 0.62 20.44 75.82 0.00 -19.87 -1.28 -26.65 -6.52 -34.65 0.00 0.00 0.00 -17.61 -46.31 5.72 -0.00 0.86 28.33 -87.25 23.36 -10.12 0.00 0.00 0.00 12.96 2.72 52.55 
1.9976 38.5126 1.3376 0.72 -4.54 31.17 7.66 -9.73 45.03 -0.00 39.09 13.23 11.80 -20.26 -39.69 -0.24 -1.13 22.92 0.00 40.20 7.61 6.26 -28.00 -61.96 -9.98 7.46 33.99 0.00 0.00 0.00 -0.02 19.86 78.79 0.00 -21.02 -1.57 -27.39 -5.78 -43.69 0.00 0.00 0.00 -6.71 -44.32 22.77 0.00 -1.50 29.51 -87.72 37.76 -3.62 0.00 0.00 0.00 13.36 0.50 58.66 
2.2169 38.5220 1.3335 0.61 -4.56 34.54 8.05 -8.97 48.67 -0.00 38.78 13.20 12.59 -21.67 -41.79 3.28 -3.71 29.70 0.00 46.02 9.54 6.10 -31.24 -72.90 -10.93 6.18 38.40 0.00 0.00 0.00 -0.01 19.13 80.94 0.00 -22.42 -2.21 -28.09 -4.57 -52.22 0.00 0.00 0.00 2.56 -41.64 37.33 0.00 -5.88 27.96 -90.72 48.53 6.06 0.00 0.00 0.00 14.39 -1.70 63.48 
2.3234 38.5659 1.3285 0.57 -4.62 38.39 8.63 -8.11 52.29 -0.00 38.37 13.20 12.96 -23.15 -45.68 8.18 -7.94 37.38 -0.00 54.20 10.96 7.74 -34.61 -82.58 -11.69 4.84 42.78 0.00 0.00 0.00 0.79 18.26 81.70 0.00 -23.97 -3.38 -28.52 -3.18 -59.21 0.00 0.00 0.00 9.84 -38.93 48.57 0.00 -10.94 24.65 -96.62 55.36 17.83 0.00 0.00 0.00 15.82 -3.98 66.49 
2.3777 38.6089 1.4467 0.62 -4.71 42.70 9.55 -7.10 55.91 -0.00 38.29 13.34 12.69 -24.91 -51.32 14.31 -12.88 46.16 -0.00 63.02 11.90 12.26 -37.36 -89.82 -12.27 3.49 47.05 0.00 0.00 0.00 2.15 17.22 81.25 -0.00 -25.36 -4.80 -28.67 -1.79 -65.04 0.00 0.00 0.00 15.36 -36.67 56.89 -0.00 -15.79 20.69 -103.95 59.29 29.76 0.00 0.00 0.00 17.36 -6.24 68.02 
2.6112 38.6735 1.7883 0.73 -4.81 47.51 10.36 -5.36 59.57 -0.00 37.68 13.86 11.38 -26.76 -59.18 20.93 -16.90 55.89 -0.00 69.58 12.76 19.38 -38.47 -94.98 -12.66 2.17 51.22 0.00 0.00 0.00 3.71 15.95 79.97 -0.00 -26.33 -6.26 -28.62 -0.58 -70.30 0.00 0.00 0.00 19.40 -35.02 62.85 -0.00 -19.81 16.69 -110.50 61.65 39.44 0.00 0.00 0.00 18.67 -8.40 68.55 
3.3646 38.7785 1.8821 0.90 -4.91 52.79 10.09 -2.96 63.45 0.00 36.39 14.85 9.25 -29.25 -69.01 26.13 -18.55 65.47 -0.00 72.76 13.87 27.63 -39.11 -98.82 -12.86 1.00 55.08 0.00 0.00 0.00 5.48 14.55 77.66 -0.00 -26.76 -7.80 -28.30 0.31 -74.53 0.00 0.00 0.00 21.93 -34.08 66.31 -0.00 -22.56 12.94 -113.17 63.25 44.20 0.00 0.00 0.00 19.55 -10.45 68.02 
3.9256 38.8136 1.2992 1.11 -4.99 58.57 9.39 -1.39 68.08 0.00 35.71 16.33 6.99 -32.48 -80.45 30.38 -19.12 74.84 -0.00 73.45 15.10 36.53 -39.17 -101.86 -12.84 0.14 58.25 0.00 0.00 0.00 7.62 13.09 74.10 -0.00 -26.66 -9.15 -27.70 1.17 -77.25 0.00 0.00 0.00 22.95 -33.89 67.07 -0.00 -23.98 9.61 -109.63 64.23 42.74 0.00 0.00 0.00 19.99 -12.48 66.23 
4.4400 38.7373 0.4874 1.35 -5.05 64.77 8.33 0.12 72.70 0.00 35.21 17.49 3.97 -35.77 -92.19 33.39 -18.45 82.76 0.00 72.11 15.77 44.46 -38.91 -104.19 -12.72 -0.48 60.82 0.00 0.00 0.00 9.63 11.56 69.48 -0.00 -26.27 -10.56 -26.78 1.65 -78.48 0.00 0.00 0.00 22.24 -34.21 65.29 -0.00 -24.17 6.20 -99.42 64.08 34.89 0.00 0.00 0.00 19.57 -14.49 63.00 
5.2000 38.6100 -0.2327 1.60 -5.09 71.32 6.94 2.32 76.81 0.00 34.32 17.95 -0.26 -38.20 -103.36 34.81 -16.55 88.47 0.00 69.59 15.73 50.16 -38.86 -105.92 -12.54 -0.88 62.84 0.00 0.00 0.00 11.40 9.97 64.03 0.00 -25.79 -11.93 -25.64 1.93 -78.42 0.00 0.00 0.00 19.81 -34.63 60.99 -0.00 -23.36 2.41 -84.95 61.34 23.41 0.00 0.00 0.00 18.33 -16.39 58.43 
5.5612 38.5734 -0.0281 1.85 -5.05 78.13 7.61 4.21 80.18 0.00 34.07 17.44 -3.88 -38.32 -112.40 36.21 -14.01 92.44 0.00 64.75 15.16 52.50 -37.15 -109.95 -12.33 -1.10 64.34 0.00 0.00 0.00 12.99 8.24 58.06 0.00 -25.45 -13.01 -24.48 2.55 -77.47 0.00 0.00 0.00 16.01 -34.75 54.49 -0.00 -21.80 -1.77 -71.30 55.28 13.67 0.00 0.00 0.00 16.62 -18.10 52.91 
